#!OML:ASF F:\VICON\USERDATA\INSTALL\rory3\rory3.ASF
:FULLY-SPECIFIED
:DEGREES
130
root 9.47356 17.9245 -2.18073 -2.89008 -23.9322 10.6968
lowerback 10.1595 -0.10042 -8.01467
upperback 0.877734 -1.11327 -1.157
thorax -4.66018 -0.408741 3.45244
lowerneck -20.3551 -7.85231 -13.4689
upperneck 27.1804 -10.3272 11.1093
head 14.0167 -4.51478 4.79419
rclavicle 3.06128e-014 2.38542e-014
rhumerus -34.8204 -20.7818 -77.7449
rradius 26.1037
rwrist 10.0305
rhand -13.8685 10.9484
rfingers 7.12502
rthumb 12.2559 -18.6725
lclavicle 3.06128e-014 2.38542e-014
lhumerus -24.4805 4.28028 76.227
lradius 35.2682
lwrist -2.81811
lhand -20.6327 27.3865
lfingers 7.12502
lthumb 5.72899 57.289
rfemur -28.7618 -6.09302 15.7032
rtibia 21.0304
rfoot -8.5654 -17.5301
rtoes 13.6309
lfemur 16.6901 1.82748 -27.9053
ltibia -3.18055e-015
lfoot -0.607059 3.0343
ltoes -22.8758
131
root 9.39048 17.9143 -2.07207 -2.96478 -24.4903 10.6411
lowerback 10.2612 -0.0397171 -7.8583
upperback 0.848811 -1.02616 -1.14515
thorax -4.76032 -0.36426 3.3672
lowerneck -20.3519 -7.86283 -13.6104
upperneck 27.221 -10.3308 11.2028
head 14.0506 -4.52049 4.85823
rclavicle 5.19822e-014 1.82882e-014
rhumerus -34.9587 -20.9152 -77.6751
rradius 25.9326
rwrist 10.1914
rhand -14.3255 9.60312
rfingers 7.12502
rthumb 11.8153 -20.0436
lclavicle 5.19822e-014 1.82882e-014
lhumerus -24.5356 4.51259 76.05
lradius 35.5063
lwrist -3.38704
lhand -19.8203 28.1361
lfingers 7.12502
lthumb 6.51333 58.016
rfemur -28.63 -6.65976 16.2702
rtibia 21.4418
rfoot -7.66172 -16.5195
rtoes 14.1378
lfemur 17.2315 1.93981 -27.6922
ltibia 4.45278e-014
lfoot -0.353114 2.89459
ltoes -25.4292
132
root 9.30393 17.9078 -1.96139 -3.09844 -24.927 10.6628
lowerback 10.3766 -0.00974068 -7.75391
upperback 0.762776 -0.991574 -1.16726
thorax -4.92212 -0.341279 3.28284
lowerneck -20.151 -7.81165 -13.5651
upperneck 27.2542 -10.2557 11.0533
head 13.9957 -4.51031 4.80782
rclavicle 1.82882e-014 1.59028e-014
rhumerus -35.3064 -21.0247 -77.547
rradius 25.8324
rwrist 10.3775
rhand -14.4337 8.89814
rfingers 7.12502
rthumb 11.7109 -20.7545
lclavicle 1.82882e-014 1.59028e-014
lhumerus -24.8871 4.44462 75.9578
lradius 35.7959
lwrist -3.33955
lhand -20.2366 27.9272
lfingers 7.12502
lthumb 6.11135 57.8191
rfemur -28.3977 -7.28122 16.7345
rtibia 21.8967
rfoot -6.88797 -15.7037
rtoes 14.272
lfemur 17.8365 1.942 -27.5801
ltibia -2.54444e-014
lfoot -0.0337011 2.70538
ltoes -29.0353
133
root 9.21461 17.898 -1.84078 -3.25387 -25.2937 10.5347
lowerback 10.3986 -0.0608139 -7.49267
upperback 0.815248 -1.0284 -1.16719
thorax -4.87884 -0.367987 3.14172
lowerneck -20.1983 -7.72182 -13.4635
upperneck 27.3477 -10.1196 10.9197
head 14.0075 -4.45727 4.76519
rclavicle 3.20043e-014 1.27222e-014
rhumerus -35.4564 -20.952 -77.5448
rradius 25.7068
rwrist 10.4175
rhand -14.2663 9.12491
rfingers 7.12502
rthumb 11.8723 -20.5185
lclavicle 3.20043e-014 1.27222e-014
lhumerus -25.0253 4.38427 75.8101
lradius 35.9646
lwrist -2.90203
lhand -20.8672 27.8412
lfingers 7.12502
lthumb 5.5026 57.7498
rfemur -28.0124 -8.05833 17.3506
rtibia 22.3726
rfoot -6.38049 -15.0046
rtoes 13.7049
lfemur 18.5849 1.87506 -27.3292
ltibia -3.18055e-015
lfoot 0.287271 2.54057
ltoes -31.4946
134
root 9.11513 17.8917 -1.71944 -3.48687 -25.6534 10.3254
lowerback 10.4964 -0.0742552 -7.25244
upperback 0.834266 -1.02255 -1.10038
thorax -4.9166 -0.368565 3.07784
lowerneck -19.8655 -7.64866 -13.588
upperneck 27.2799 -10.0099 10.9214
head 13.8981 -4.43506 4.81228
rclavicle 4.26393e-014 -1.82882e-014
rhumerus -35.7741 -21.0085 -77.3456
rradius 25.5683
rwrist 10.5562
rhand -13.8894 9.30522
rfingers 7.12502
rthumb 12.2358 -20.3169
lclavicle 4.26393e-014 -1.82882e-014
lhumerus -25.3162 4.24925 75.7721
lradius 36.1002
lwrist -2.21427
lhand -21.4353 27.39
lfingers 7.12502
lthumb 4.95403 57.3121
rfemur -27.4433 -8.62082 17.9971
rtibia 22.7147
rfoot -5.6724 -14.8484
rtoes 12.5116
lfemur 19.43 1.7996 -26.9587
ltibia 2.8625e-014
lfoot 0.757575 2.31782
ltoes -32.7179
135
root 9.01021 17.8995 -1.60217 -3.74214 -25.8979 10.3036
lowerback 10.6631 -0.0955687 -7.24285
upperback 0.76926 -1.06532 -1.05127
thorax -5.07339 -0.38211 3.13323
lowerneck -19.4946 -7.57818 -13.8057
upperneck 27.2399 -9.90751 10.9982
head 13.8049 -4.41798 4.90646
rclavicle 1.97791e-014 -1.43125e-014
rhumerus -36.1597 -20.7677 -77.2464
rradius 25.5555
rwrist 10.3516
rhand -13.8399 9.17347
rfingers 7.12502
rthumb 12.2834 -20.4458
lclavicle 1.97791e-014 -1.43125e-014
lhumerus -25.8061 4.24079 75.7817
lradius 36.3592
lwrist -1.90415
lhand -21.7383 27.2786
lfingers 7.12502
lthumb 4.6615 57.2073
rfemur -26.923 -8.85714 18.3148
rtibia 22.929
rfoot -4.34347 -15.2001
rtoes 12.6129
lfemur 20.1642 1.60889 -26.7597
ltibia 2.8625e-014
lfoot 1.39354 2.04867
ltoes -32.604
136
root 8.9052 17.9224 -1.48672 -3.74813 -26.0182 9.94908
lowerback 10.8147 -0.190569 -6.96196
upperback 0.691114 -1.16502 -0.895132
thorax -5.232 -0.427914 3.15763
lowerneck -19.4185 -7.50256 -13.8783
upperneck 27.4125 -9.78043 10.9275
head 13.8415 -4.38452 4.92264
rclavicle -1.97791e-014 3.26007e-014
rhumerus -36.4708 -20.6074 -77.094
rradius 25.5271
rwrist 10.3068
rhand -13.9253 9.13183
rfingers 7.12502
rthumb 12.2011 -20.4923
lclavicle -1.97791e-014 3.26007e-014
lhumerus -26.1061 4.48909 75.7606
lradius 36.445
lwrist -2.2709
lhand -21.2817 27.7051
lfingers 7.12502
lthumb 5.1024 57.6237
rfemur -26.4868 -8.70435 18.7341
rtibia 23.0567
rfoot -2.98636 -15.6663
rtoes 16.92
lfemur 20.7766 1.26001 -26.2695
ltibia 6.99722e-014
lfoot 2.21979 1.89225
ltoes -32.831
137
root 8.79776 17.9483 -1.36583 -3.65521 -26.1367 9.52777
lowerback 10.8385 -0.293126 -6.58326
upperback 0.599466 -1.25226 -0.759238
thorax -5.3373 -0.47201 3.10212
lowerneck -19.3093 -7.43179 -13.895
upperneck 27.6178 -9.69623 10.8776
head 13.8898 -4.36309 4.93119
rclavicle 3.35946e-014 -1.59028e-014
rhumerus -36.771 -20.4695 -76.9913
rradius 25.4648
rwrist 10.2528
rhand -13.9608 9.07773
rfingers 7.12502
rthumb 12.1669 -20.5484
lclavicle 3.35946e-014 -1.59028e-014
lhumerus -26.5012 4.70294 75.7471
lradius 36.6179
lwrist -2.48767
lhand -20.9152 27.9836
lfingers 7.12502
lthumb 5.45627 57.8933
rfemur -26.0583 -8.41986 19.1357
rtibia 23.113
rfoot -2.07688 -15.7741
rtoes 20.6396
lfemur 21.2931 0.895198 -25.7193
ltibia -2.22639e-014
lfoot 3.21438 1.75585
ltoes -32.7194
138
root 8.68304 17.9648 -1.24393 -3.60637 -26.3949 9.40606
lowerback 10.6776 -0.303149 -6.55544
upperback 0.537942 -1.24702 -0.682421
thorax -5.31144 -0.468459 3.16409
lowerneck -19.2798 -7.45672 -13.8478
upperneck 27.781 -9.71093 10.6875
head 13.9403 -4.39141 4.84727
rclavicle 5.53615e-014 5.56597e-015
rhumerus -36.9542 -20.6007 -76.8018
rradius 25.2737
rwrist 10.3067
rhand -13.9203 9.08294
rfingers 7.12502
rthumb 12.2059 -20.5409
lclavicle 5.53615e-014 5.56597e-015
lhumerus -26.9531 5.09679 75.7986
lradius 36.8093
lwrist -2.50619
lhand -20.5649 27.6143
lfingers 7.12502
lthumb 5.7944 57.5151
rfemur -25.609 -8.10585 19.34
rtibia 23.0671
rfoot -1.46481 -15.3553
rtoes 22.2474
lfemur 21.6929 0.676159 -25.4303
ltibia -3.18055e-015
lfoot 4.44769 1.31785
ltoes -31.663
139
root 8.57074 17.9774 -1.12797 -3.56882 -26.7431 9.52675
lowerback 10.4704 -0.269399 -6.74067
upperback 0.463358 -1.2107 -0.680949
thorax -5.27437 -0.445582 3.26123
lowerneck -19.3148 -7.47197 -13.7116
upperneck 27.9022 -9.72205 10.4823
head 13.9792 -4.40784 4.73982
rclavicle -8.84592e-015 1.35174e-014
rhumerus -37.124 -21.2287 -76.4231
rradius 24.9685
rwrist 10.8511
rhand -14.0613 9.21295
rfingers 7.12502
rthumb 12.07 -20.4189
lclavicle -8.84592e-015 1.35174e-014
lhumerus -27.4557 5.33759 75.9257
lradius 37.0121
lwrist -1.86851
lhand -20.1272 26.7678
lfingers 7.12502
lthumb 6.217 56.6566
rfemur -25.2824 -8.14024 19.4948
rtibia 23.0372
rfoot -0.781736 -14.3528
rtoes 23.9621
lfemur 21.9565 0.561909 -25.4012
ltibia -2.8625e-014
lfoot 5.79379 0.873262
ltoes -31.7045
140
root 8.46157 17.9943 -1.01373 -3.472 -27.2346 9.23437
lowerback 10.3723 -0.245041 -6.52813
upperback 0.446739 -1.14153 -0.609375
thorax -5.24621 -0.416273 3.2055
lowerneck -19.3545 -7.4326 -13.634
upperneck 27.9818 -9.70638 10.5107
head 14.0161 -4.38965 4.7439
rclavicle 1.19271e-014 -3.97569e-015
rhumerus -37.2337 -22.2044 -75.9474
rradius 24.5212
rwrist 11.8275
rhand -14.2414 9.34356
rfingers 7.12502
rthumb 11.8963 -20.2985
lclavicle 1.19271e-014 -3.97569e-015
lhumerus -27.9515 5.89973 75.8274
lradius 37.1948
lwrist -2.25665
lhand -19.3885 27.6349
lfingers 7.12502
lthumb 6.9301 57.5015
rfemur -24.8284 -8.25688 20.0993
rtibia 23.0704
rfoot -0.356745 -13.2903
rtoes 26.0741
lfemur 19.9733 0.638514 -24.9298
ltibia 4.7417
lfoot 4.72548 0.683039
ltoes -34.0203
141
root 8.35199 18.0137 -0.897373 -3.36789 -27.8115 8.6263
lowerback 10.3465 -0.206726 -5.98514
upperback 0.467846 -1.01664 -0.490764
thorax -5.22818 -0.367323 3.00633
lowerneck -19.2341 -7.4075 -13.5725
upperneck 27.9543 -9.73371 10.5847
head 13.9833 -4.39059 4.75979
rclavicle 1.60519e-014 5.56597e-015
rhumerus -37.4169 -22.8013 -75.6589
rradius 24.3164
rwrist 12.3182
rhand -14.2245 9.21551
rfingers 7.12502
rthumb 11.9126 -20.4256
lclavicle 1.60519e-014 5.56597e-015
lhumerus -28.3394 6.26753 75.6909
lradius 37.0506
lwrist -2.62563
lhand -19.9703 26.8608
lfingers 7.12502
lthumb 6.3685 56.745
rfemur -24.1461 -8.17034 20.9527
rtibia 23.1368
rfoot -0.415603 -12.7381
rtoes 26.4067
lfemur 18.2598 0.792848 -24.1485
ltibia 9.19062
lfoot 3.96354 0.763285
ltoes -35.544
142
root 8.24151 18.0311 -0.780844 -3.37685 -28.4465 8.38241
lowerback 10.2783 -0.0933627 -5.77894
upperback 0.419759 -0.833894 -0.409998
thorax -5.25935 -0.27927 2.94826
lowerneck -19.0797 -7.42955 -13.653
upperneck 28.0689 -9.79231 10.626
head 14.0169 -4.42703 4.78587
rclavicle 6.55989e-015 -1.11319e-014
rhumerus -37.7958 -23.1868 -75.2631
rradius 24.2673
rwrist 12.4885
rhand -14.1382 9.05158
rfingers 7.12502
rthumb 11.9959 -20.5847
lclavicle 6.55989e-015 -1.11319e-014
lhumerus -28.7195 6.55703 75.7277
lradius 36.8359
lwrist -2.82571
lhand -20.8963 25.738
lfingers 7.12502
lthumb 5.47446 55.6473
rfemur -23.5117 -8.06596 21.4507
rtibia 23.2188
rfoot -0.942654 -12.4465
rtoes 25.1248
lfemur 17.0157 1.0174 -23.7396
ltibia 12.4951
lfoot 4.29912 0.891771
ltoes -35.1728
143
root 8.13261 18.0466 -0.662691 -3.47322 -29.1464 8.39232
lowerback 10.1985 0.0317428 -5.81241
upperback 0.363122 -0.665011 -0.358133
thorax -5.28909 -0.192543 2.99668
lowerneck -18.9672 -7.48104 -13.9714
upperneck 28.1678 -9.8832 10.895
head 14.0897 -4.47356 4.94075
rclavicle -3.17062e-014 -1.35174e-014
rhumerus -38.0975 -23.5676 -74.8243
rradius 24.1408
rwrist 12.7238
rhand -14.145 9.10955
rfingers 7.12502
rthumb 11.9893 -20.5271
lclavicle -3.17062e-014 -1.35174e-014
lhumerus -29.1304 7.05696 75.8144
lradius 36.8664
lwrist -2.59829
lhand -21.19 25.6447
lfingers 7.12502
lthumb 5.19091 55.5611
rfemur -22.9724 -7.97733 21.6976
rtibia 23.3535
rfoot -1.45361 -11.9094
rtoes 23.451
lfemur 15.9662 1.21754 -23.6409
ltibia 15.3118
lfoot 5.42275 0.782018
ltoes -34.5256
